<svg xmlns="http://www.w3.org/2000/svg" version="1.1" xmlns:xlink="http://www.w3.org/1999/xlink" xmlns:svgjs="http://svgjs.dev/svgjs" width="1500" height="1102" viewBox="0 0 1500 1102"><g transform="matrix(1,0,0,1,0.7815096681076739,0.4461538461538339)"><svg viewBox="0 0 336 247" data-background-color="#000000" preserveAspectRatio="xMidYMid meet" height="1102" width="1500" xmlns="http://www.w3.org/2000/svg" xmlns:xlink="http://www.w3.org/1999/xlink"><g id="tight-bounds" transform="matrix(1,0,0,1,-0.175058165656111,-0.09999999999999432)"><svg viewBox="0 0 336.3501163313122 247.2" height="247.2" width="336.3501163313122"><g><svg viewBox="0 0 397.4975999999999 292.1402489518105" height="247.2" width="336.3501163313122"><g><rect width="397.4975999999999" height="8.947869976962306" x="0" y="160.54743818903358" fill="#ffffff" opacity="1" stroke-width="0" stroke="transparent" fill-opacity="1" class="rect-qz-0" data-fill-palette-color="secondary" rx="1%" id="qz-0" data-palette-color="#ffffff"></rect></g><g transform="matrix(1,0,0,1,0.9887999999999693,192.91905156118517)"><svg viewBox="0 0 395.52 99.22119739062539" height="99.22119739062539" width="395.52"><g id="textblocktransform"><svg viewBox="0 0 395.52 99.22119739062539" height="99.22119739062539" width="395.52" id="textblock"><g><svg viewBox="0 0 395.52 99.22119739062539" height="99.22119739062539" width="395.52"><g transform="matrix(1,0,0,1,0,0)"><svg width="395.52" viewBox="3.05 -35.5 143.49480471244797 36" height="99.22119739062539" data-palette-color="#ffffff"><path d="M27.05-25.95L27.05-25.95Q27.05-20.75 22.55-18.05L22.55-18.05Q25-17.15 26.65-14.95 28.3-12.75 28.3-8.72 28.3-4.7 25.33-2.35 22.35 0 16.8 0L16.8 0 5 0Q4.15 0 3.6-0.58 3.05-1.15 3.05-2.1L3.05-2.1 3.05-34.1Q3.05-34.65 3.23-34.83 3.4-35 3.95-35L3.95-35 15.35-35Q27.05-35 27.05-25.95ZM13.7-26.9L12.65-26.9 12.65-20.35 12.9-20.35Q17.7-20.35 17.7-23.55L17.7-23.55Q17.7-25.3 16.78-26.1 15.85-26.9 13.7-26.9L13.7-26.9ZM13.7-14.45L12.65-14.45 12.65-7.95 13.55-7.95Q15.7-7.95 16.7-8.75 17.7-9.55 17.7-11.3 17.7-13.05 16.78-13.75 15.85-14.45 13.7-14.45L13.7-14.45ZM40.3-16.55L40.3-0.35Q40.3 0.1 36.12 0.1 31.95 0.1 31.95-0.6L31.95-0.6 31.95-34.85Q31.95-35.2 33.5-35.35 35.05-35.5 36.1-35.5L36.1-35.5Q40.3-35.5 40.3-34.6L40.3-34.6 40.3-24.6Q43.1-25.45 44.55-25.45L44.55-25.45Q48.35-25.45 50.55-23.43 52.75-21.4 52.75-15.9L52.75-15.9 52.75-0.4Q52.75 0.05 48.85 0.05L48.85 0.05Q44.45-0.1 44.45-0.45L44.45-0.45 44.45-15.15Q44.45-17.6 42.85-17.6L42.85-17.6Q41.75-17.6 40.3-16.55L40.3-16.55ZM60.15-18.15L60.15-18.15Q58.75-20.65 58.75-22.23 58.75-23.8 59.6-24.25L59.6-24.25Q62.45-25.5 67.42-25.5 72.4-25.5 74.45-23.18 76.5-20.85 76.5-16.3L76.5-16.3 76.5-8.4 78.2-8.4Q79.05-8.4 79.52-7.4 80-6.4 80-4.65 80-2.9 79.12-1.2 78.25 0.5 76.75 0.5L76.75 0.5Q74.05 0.5 72.4-0.95L72.4-0.95Q71.65-1.55 71.25-2.4L71.25-2.4Q68.95 0.5 64.09 0.5L64.09 0.5Q60.45 0.5 57.95-2.1 55.45-4.7 55.45-8.25L55.45-8.25Q55.45-16.4 65.2-16.4L65.2-16.4 67.95-16.4 67.95-16.9Q67.95-18.2 67.52-18.57 67.09-18.95 65.55-18.95L65.55-18.95Q63.65-18.95 60.15-18.15ZM64.15-8.95L64.15-8.95Q64.15-7.85 64.75-7.28 65.34-6.7 66.27-6.7 67.2-6.7 67.95-7.45L67.95-7.45 67.95-11.3 66.55-11.3Q64.15-11.3 64.15-8.95ZM87.34-0.6L80.89-24.85Q80.74-25.25 85.57-25.25 90.39-25.25 90.39-25L90.39-25 93.99-8 96.69-24.75Q96.84-25.2 101.64-25.2L101.64-25.2Q106.49-25.2 106.34-24.8L106.34-24.8 99.29-0.35Q98.94 0.15 93.34 0.15 87.74 0.15 87.34-0.6L87.34-0.6ZM118.04-24.85L118.04-0.3Q118.04 0.1 113.47 0.1 108.89 0.1 108.89-0.25L108.89-0.25 108.89-24.8Q108.89-25.15 113.47-25.15 118.04-25.15 118.04-24.85L118.04-24.85ZM118.04-35.15L118.04-27.8Q118.04-27.45 113.47-27.45 108.89-27.45 108.89-27.75L108.89-27.75 108.89-34.95Q108.89-35.45 113.47-35.45 118.04-35.45 118.04-35.15L118.04-35.15ZM122.54-0.3L122.54-34.6Q122.54-35.4 127.09-35.4L127.09-35.4Q131.34-35.25 131.34-34.75L131.34-34.75 131.34-15.55 136.29-24.7Q136.64-25.45 140.54-25.45 144.44-25.45 145.54-24.95L145.54-24.95 139.04-14.35 146.54-0.3Q146.64-0.1 144.66 0.03 142.69 0.15 141.39 0.15L141.39 0.15Q136.59 0.15 136.24-0.3L136.24-0.3 131.29-11.4 131.29-0.35Q131.29 0.3 126.91 0.3 122.54 0.3 122.54-0.3L122.54-0.3Z" opacity="1" transform="matrix(1,0,0,1,0,0)" fill="#ffffff" class="wordmark-text-0" data-fill-palette-color="primary" id="text-0"></path></svg></g></svg></g></svg></g></svg></g><g transform="matrix(1,0,0,1,122.1861908047734,0)"><svg viewBox="0 0 153.1252183904531 137.1236947938443" height="137.1236947938443" width="153.1252183904531"><g><svg xmlns="http://www.w3.org/2000/svg" xmlns:xlink="http://www.w3.org/1999/xlink" version="1.1" x="8" y="0" viewBox="4.967 5 90.001 90" enable-background="new 0 0 100 100" xml:space="preserve" height="137.1236947938443" width="137.1252183904531" class="icon-icon-0" data-fill-palette-color="accent" id="icon-0"><g fill="#ffffff" data-fill-palette-color="accent"><polygon points="81.588,69.219 76.042,77.733 49.901,5 30.566,58.797 24.486,43.546 4.967,95 17.555,95 45,95 64.794,95 82.249,95    94.968,95  " fill="#ffffff" data-fill-palette-color="accent"></polygon></g></svg></g></svg></g><g><rect width="27.369576751148912" height="8.947869976962306" y="127.175824816882" x="275.31140919522653" fill="#ffffff" data-fill-palette-color="secondary"></rect><rect width="27.369576751148912" height="8.947869976962306" y="127.175824816882" x="94.81661405362449" fill="#ffffff" data-fill-palette-color="secondary"></rect></g></svg></g><defs></defs></svg><rect width="336.3501163313122" height="247.2" fill="none" stroke="none" visibility="hidden"></rect></g></svg></g></svg>